<?xml version="1.0" standalone="no"?>
<!DOCTYPE svg PUBLIC "-//W3C//DTD SVG 20010904//EN"
 "http://www.w3.org/TR/2001/REC-SVG-20010904/DTD/svg10.dtd">
<svg version="1.0" xmlns="http://www.w3.org/2000/svg"
 width="200.000000pt" height="200.000000pt" viewBox="0 0 200.000000 200.000000"
 preserveAspectRatio="xMidYMid meet">
<metadata>
Created by potrace 1.11, written by Peter Selinger 2001-2013
</metadata>
<g transform="translate(0.000000,200.000000) scale(0.100000,-0.100000)"
fill="#000000" stroke="none">
<path d="M909 1832 c-3 -12 3 -237 5 -240 2 -1 9 0 17 3 11 4 14 24 12 83 l-3
77 25 -74 c24 -72 40 -95 58 -84 6 4 4 221 -2 241 -1 1 -8 2 -17 2 -13 0 -15
-11 -12 -75 3 -41 2 -72 -1 -69 -3 3 -15 35 -26 71 -14 46 -26 67 -38 69 -9 1
-18 -1 -18 -4z"/>
<path d="M1176 1767 c-49 -170 -50 -178 -35 -188 11 -7 17 2 29 41 20 62 25
68 28 27 4 -54 11 -80 24 -88 22 -14 25 -1 15 60 l-10 60 43 53 c40 50 41 53
20 56 -13 2 -27 -4 -35 -15 -7 -10 -23 -29 -35 -43 l-22 -25 6 25 c18 71 18
77 3 83 -12 5 -19 -7 -31 -46z"/>
<path d="M743 1804 c-8 -4 -10 -22 -7 -57 8 -87 13 -141 13 -164 1 -15 7 -23
19 -23 13 0 17 8 17 33 0 26 4 33 22 35 16 2 26 -4 35 -22 6 -14 15 -26 19
-26 23 0 16 32 -27 126 -47 100 -57 111 -91 98z m56 -144 c-19 -12 -26 2 -27
58 l-2 47 22 -48 c18 -41 19 -50 7 -57z"/>
<path d="M589 1746 c-67 -35 -70 -38 -61 -49 5 -7 31 -54 57 -104 27 -51 52
-93 56 -93 19 0 20 24 3 57 l-19 34 28 21 c33 24 33 34 5 92 -25 52 -36 59
-69 42z m40 -65 c21 -40 19 -51 -9 -51 -23 0 -56 70 -38 81 21 14 27 11 47
-30z"/>
<path d="M1339 1658 c-83 -106 -84 -109 -69 -118 8 -5 19 -1 30 12 12 15 22
19 38 13 19 -5 22 -11 16 -39 -4 -24 -2 -35 9 -39 11 -4 23 23 50 111 34 108
35 118 20 130 -9 6 -20 12 -23 12 -4 0 -36 -37 -71 -82z m54 -15 c-19 -59 -27
-68 -41 -50 -9 11 -5 23 20 55 18 23 33 42 35 42 1 0 -5 -21 -14 -47z"/>
<path d="M1540 1631 c-8 -11 -42 -49 -75 -86 -33 -37 -61 -71 -63 -75 -4 -10
69 -70 84 -70 10 0 74 64 74 75 0 2 16 19 35 37 47 46 47 64 0 103 -38 32 -41
33 -55 16z m49 -45 c9 -11 6 -20 -13 -42 -23 -28 -26 -28 -42 -12 -17 17 -17
19 6 43 27 29 33 30 49 11z m-68 -105 c-19 -34 -38 -43 -61 -31 l-22 12 27 28
c22 23 32 27 47 19 14 -7 16 -14 9 -28z"/>
<path d="M397 1617 c-15 -12 -27 -29 -27 -36 0 -23 129 -171 149 -171 16 0 71
51 71 66 0 21 -129 164 -149 164 -10 0 -30 -10 -44 -23z m153 -143 c0 -29 -32
-22 -63 13 -18 20 -44 50 -59 67 -25 27 -26 30 -10 43 15 11 24 5 74 -50 32
-34 57 -67 58 -73z"/>
<path d="M277 1486 c-4 -9 9 -24 39 -43 41 -27 43 -31 30 -49 -16 -20 -16 -20
-83 24 -20 13 -23 12 -29 -2 -8 -20 -18 -11 95 -85 85 -56 111 -65 111 -41 0
6 -18 22 -40 36 -44 29 -46 33 -27 57 11 15 16 13 54 -13 34 -24 44 -26 53
-15 9 11 -7 26 -80 75 -107 72 -116 76 -123 56z"/>
<path d="M1614 1433 c-43 -30 -83 -58 -87 -63 -13 -12 -1 -41 28 -72 25 -27
26 -27 53 -10 78 48 152 107 152 119 0 23 -32 71 -50 76 -9 2 -52 -20 -96 -50z
m105 -2 c9 -16 1 -25 -60 -65 -67 -45 -100 -53 -99 -24 1 10 135 108 147 108
1 0 7 -8 12 -19z"/>
<path d="M927 1428 c-39 -14 -33 -44 8 -39 71 9 95 4 104 -21 5 -14 4 -32 -2
-46 -14 -31 6 -53 28 -31 38 38 35 107 -5 129 -30 16 -99 20 -133 8z"/>
<path d="M897 1363 c-9 -9 19 -73 30 -68 8 3 13 -4 13 -18 0 -20 5 -23 40 -24
49 -1 55 7 40 52 -9 27 -17 35 -35 35 -13 0 -29 -8 -34 -17 -6 -11 -11 -13
-11 -5 0 8 -5 10 -12 6 -7 -4 -4 2 6 14 11 12 17 23 15 23 -12 4 -49 6 -52 2z"/>
<path d="M858 1313 c-15 -37 -19 -73 -8 -73 14 0 32 39 24 52 -4 6 -3 8 3 5
12 -8 26 20 17 34 -10 17 -24 9 -36 -18z"/>
<path d="M1703 1276 c-68 -27 -103 -46 -102 -56 0 -28 34 -85 52 -88 10 -2 36
5 60 16 23 11 63 27 90 36 33 13 47 23 47 37 0 23 -30 99 -39 98 -3 -1 -52
-20 -108 -43z m109 -48 c-5 -5 -22 -10 -38 -11 -43 -3 -45 29 -2 46 30 13 34
12 41 -6 4 -11 4 -24 -1 -29z m-98 -38 c-5 -5 -23 -12 -40 -16 -26 -5 -32 -2
-36 14 -5 17 2 24 31 35 34 14 37 14 45 -4 6 -12 6 -23 0 -29z"/>
<path d="M182 1298 c-17 -22 -32 -67 -26 -82 3 -8 50 -29 105 -47 112 -38 124
-35 136 34 5 33 3 38 -22 47 -40 15 -59 -5 -27 -28 14 -11 21 -24 17 -33 -5
-13 -18 -12 -90 14 -68 24 -85 33 -85 49 0 17 5 19 25 14 18 -5 27 -2 31 9 8
19 6 22 -27 30 -16 4 -30 1 -37 -7z"/>
<path d="M1139 1248 c-13 -13 -33 -16 -100 -14 -46 2 -111 0 -144 -4 -36 -4
-63 -3 -66 3 -8 12 -31 -1 -24 -14 4 -5 1 -9 -4 -9 -6 0 -11 7 -11 15 0 8 -4
15 -10 15 -5 0 -10 -6 -10 -14 0 -9 -7 -12 -20 -9 -18 5 -20 0 -20 -51 0 -56
6 -66 28 -44 9 9 12 7 12 -11 0 -14 5 -21 13 -18 7 2 12 23 12 55 -1 52 9 63
11 14 1 -15 2 -32 3 -38 1 -8 49 -11 161 -11 88 0 163 -2 167 -6 12 -13 22 -7
26 16 l4 22 2 -22 c1 -25 31 -32 31 -8 0 8 6 15 14 15 16 0 23 30 17 73 -2 19
-8 26 -17 23 -9 -3 -14 2 -14 14 0 11 -7 20 -15 20 -11 0 -15 -12 -17 -42 l-1
-43 -6 44 c-6 41 -7 44 -22 29z"/>
<path d="M840 1086 c0 -9 5 -16 10 -16 6 0 10 4 10 9 0 6 -4 13 -10 16 -5 3
-10 -1 -10 -9z"/>
<path d="M875 1069 c-5 -15 -2 -26 9 -34 9 -7 16 -20 16 -29 0 -18 11 -21 26
-6 6 6 9 -34 8 -108 0 -64 1 -120 3 -124 4 -9 76 21 85 36 4 6 8 44 8 84 0 39
4 72 10 72 5 0 7 -7 3 -16 -4 -12 0 -15 17 -12 27 3 40 28 16 28 -9 0 -16 5
-16 11 0 6 -7 9 -15 6 -11 -5 -15 6 -17 50 l-3 57 -44 1 c-35 1 -45 -2 -49
-17 -4 -18 -6 -18 -27 2 l-23 22 -7 -23z"/>
<path d="M100 1001 c0 -4 23 -9 50 -10 28 -1 50 2 50 7 0 4 -22 8 -50 9 -27 1
-50 -1 -50 -6z"/>
<path d="M210 999 c0 -4 36 -7 80 -6 44 0 80 4 80 7 0 4 -36 7 -80 7 -44 -1
-80 -4 -80 -8z"/>
<path d="M1626 998 c7 -11 34 -10 34 1 0 6 -9 9 -19 8 -11 0 -17 -5 -15 -9z"/>
<path d="M1670 1002 c0 -4 9 -8 20 -9 11 -1 20 2 20 8 0 5 -9 9 -20 9 -11 0
-20 -4 -20 -8z"/>
<path d="M1720 1000 c0 -5 5 -10 10 -10 6 0 10 5 10 10 0 6 -4 10 -10 10 -5 0
-10 -4 -10 -10z"/>
<path d="M1750 1002 c0 -4 9 -8 20 -9 11 -1 20 2 20 8 0 5 -9 9 -20 9 -11 0
-20 -4 -20 -8z"/>
<path d="M1800 1000 c0 -5 5 -10 10 -10 6 0 10 5 10 10 0 6 -4 10 -10 10 -5 0
-10 -4 -10 -10z"/>
<path d="M1830 1002 c0 -5 14 -8 30 -8 17 0 30 3 30 8 0 4 -13 8 -30 8 -16 0
-30 -4 -30 -8z"/>
<path d="M1727 943 c-3 -5 -5 -29 -5 -54 -1 -39 2 -48 19 -52 24 -6 36 16 34
62 -2 38 -34 67 -48 44z m31 -53 c2 -23 -2 -40 -8 -40 -5 0 -10 18 -10 40 0
22 4 40 8 40 4 0 9 -18 10 -40z"/>
<path d="M1796 942 c-12 -11 -6 -100 7 -105 26 -9 37 6 37 53 0 39 -4 49 -19
53 -11 3 -22 2 -25 -1z m29 -54 c-2 -33 -19 -33 -20 -1 -1 16 1 32 3 37 7 13
18 -11 17 -36z"/>
<path d="M1868 943 c-10 -3 -18 -11 -18 -19 0 -17 17 -19 22 -2 3 7 7 6 11 -5
3 -9 2 -17 -4 -17 -6 0 -6 -7 1 -19 7 -13 7 -22 0 -26 -5 -3 -10 -1 -10 4 0 6
-4 11 -10 11 -18 0 -10 -28 9 -33 27 -7 31 0 31 54 0 51 -5 58 -32 52z"/>
<path d="M170 884 c0 -38 4 -54 13 -54 23 0 27 12 9 26 -16 12 -16 13 1 19 21
9 23 25 2 25 -9 0 -12 6 -8 15 6 18 37 16 39 -3 1 -6 2 -16 3 -22 0 -5 8 -10
16 -10 8 0 15 -6 15 -14 0 -9 -7 -12 -20 -9 -16 4 -19 2 -14 -11 6 -16 43 -23
45 -8 0 4 2 15 4 25 2 9 -5 22 -16 27 -10 6 -19 18 -19 27 0 13 3 14 12 5 16
-16 29 -15 22 2 -4 9 -22 14 -55 14 l-49 1 0 -55z"/>
<path d="M288 933 c7 -3 12 -24 12 -56 0 -58 12 -57 15 1 1 21 5 44 9 50 5 8
-2 12 -21 11 -15 0 -22 -3 -15 -6z"/>
<path d="M1660 925 c0 -18 16 -20 23 -2 3 7 6 4 6 -6 1 -10 -6 -31 -14 -46
-13 -27 -13 -29 5 -34 11 -3 23 -1 26 4 3 5 -2 9 -10 9 -13 0 -13 3 0 28 22
42 18 62 -11 62 -16 0 -25 -6 -25 -15z"/>
<path d="M1073 914 c-3 -9 0 -20 8 -25 21 -13 29 -11 29 10 0 24 -29 36 -37
15z"/>
<path d="M1257 882 c-10 -10 -17 -23 -17 -27 0 -5 -17 -34 -38 -65 -48 -69
-57 -90 -36 -90 8 0 24 5 35 10 32 17 23 -12 -13 -47 -61 -57 -104 -67 -138
-33 -12 12 -20 33 -20 54 0 41 -14 53 -38 35 -14 -11 -14 -10 1 8 11 12 25 19
34 16 9 -4 16 2 20 16 3 11 12 21 19 21 8 0 14 7 14 16 0 8 7 22 15 30 11 12
12 20 5 35 -15 27 -33 24 -28 -6 3 -13 1 -22 -3 -19 -5 3 -11 -7 -15 -21 -3
-14 -12 -25 -20 -25 -8 0 -14 -4 -14 -10 0 -5 -9 -10 -20 -10 -20 0 -42 -30
-38 -51 2 -6 -3 -14 -10 -16 -9 -4 -11 2 -6 21 7 28 -9 36 -23 13 -4 -8 -16
-16 -25 -20 -20 -7 -22 -15 -8 -37 8 -13 11 -12 24 5 15 19 15 19 16 -6 0 -32
-27 -69 -55 -73 -11 -2 -31 2 -45 9 -27 14 -100 80 -100 90 0 4 18 4 40 0 23
-4 40 -3 40 3 0 5 -22 40 -50 78 -67 94 -76 104 -87 104 -13 0 -64 -232 -54
-243 5 -4 19 3 32 17 l23 24 38 -43 c21 -24 54 -53 73 -65 19 -12 35 -27 35
-34 0 -7 9 -21 20 -31 11 -10 22 -33 26 -51 5 -27 11 -34 30 -34 26 0 40 15
23 25 -5 4 -8 13 -5 21 3 8 1 15 -4 15 -6 1 -14 2 -20 3 -5 0 -10 4 -10 9 0 4
0 12 0 17 0 16 35 -5 76 -46 19 -20 37 -34 38 -33 2 2 9 14 15 27 6 12 35 34
64 48 86 44 136 83 175 136 l36 51 22 -28 c37 -46 44 -24 23 72 -23 106 -38
153 -48 153 -4 0 -15 -8 -24 -18z"/>
<path d="M340 844 c0 -8 5 -12 10 -9 6 4 8 11 5 16 -9 14 -15 11 -15 -7z"/>
<path d="M104 793 c10 -10 266 -10 266 0 0 4 -61 7 -137 7 -75 0 -133 -3 -129
-7z"/>
<path d="M1624 793 c9 -10 266 -10 266 0 0 4 -61 7 -137 7 -75 0 -133 -3 -129
-7z"/>
<path d="M846 684 c-4 -9 -1 -23 5 -30 9 -11 7 -14 -7 -14 -16 0 -16 -2 -4
-10 10 -6 20 -4 32 6 13 13 15 21 6 40 -13 28 -23 31 -32 8z"/>
<path d="M1484 519 c-19 -21 -18 -21 35 -70 30 -27 57 -49 61 -49 4 0 15 9 25
20 21 23 13 39 -10 20 -13 -11 -19 -11 -32 3 -13 13 -14 19 -3 31 10 13 10 16
-3 16 -9 0 -19 -5 -22 -10 -4 -6 -12 -4 -22 6 -12 11 -13 18 -4 27 6 6 11 15
11 19 0 14 -17 8 -36 -13z"/>
<path d="M432 474 c-34 -25 -60 -50 -56 -55 4 -6 11 -6 19 1 21 17 38 2 30
-27 -10 -41 13 -23 55 44 30 46 36 64 27 71 -9 8 -30 -2 -75 -34z m32 -19 c-9
-14 -21 -22 -27 -18 -6 4 -1 13 12 25 31 24 35 23 15 -7z"/>
<path d="M1440 466 c0 -7 7 -19 16 -26 8 -8 20 -22 25 -32 8 -14 -1 -11 -32
11 -39 29 -67 33 -52 8 21 -35 83 -107 90 -105 11 4 5 20 -19 46 -26 27 -12
29 22 2 27 -21 50 -26 50 -11 0 10 -88 121 -96 121 -2 0 -4 -6 -4 -14z"/>
<path d="M502 401 c-23 -33 -38 -62 -33 -66 5 -3 18 6 29 19 14 18 25 23 41
19 21 -5 22 -4 10 15 -10 17 -10 23 1 36 12 15 14 15 31 0 14 -12 19 -13 19
-4 0 14 -29 39 -46 40 -5 0 -29 -27 -52 -59z"/>
<path d="M913 415 c-3 -9 -2 -19 1 -23 8 -8 38 10 44 26 6 18 -38 14 -45 -3z"/>
<path d="M1355 410 c-6 -10 65 -130 77 -130 15 0 8 19 -28 79 -39 65 -40 66
-49 51z"/>
<path d="M586 365 c-37 -68 -40 -82 -17 -94 31 -17 47 -13 59 14 16 34 15 45
-3 45 -8 0 -15 -9 -15 -19 0 -22 -15 -35 -30 -26 -6 3 1 22 15 45 14 22 25 44
25 50 0 5 7 10 16 10 11 0 14 -6 9 -20 -7 -22 5 -26 23 -8 9 9 8 16 -5 30 -27
30 -49 22 -77 -27z"/>
<path d="M957 394 c-14 -14 -7 -25 13 -22 12 2 21 8 21 13 0 12 -24 18 -34 9z"/>
<path d="M1285 376 c-17 -12 -17 -17 -5 -46 11 -26 18 -31 37 -27 16 3 27 -2
33 -14 15 -27 12 -30 -16 -23 -24 6 -25 5 -15 -14 7 -13 17 -18 31 -15 32 8
38 25 23 61 -12 29 -18 33 -38 28 -18 -5 -27 -1 -35 13 -12 23 7 42 21 20 10
-17 23 -5 16 16 -8 19 -27 19 -52 1z"/>
<path d="M677 309 c-17 -44 -25 -75 -19 -81 6 -6 14 3 22 21 16 40 45 43 35 4
-3 -15 -7 -30 -8 -33 -1 -3 2 -7 6 -10 5 -3 21 28 37 68 18 48 24 72 16 72 -7
0 -19 -13 -27 -30 -10 -20 -18 -27 -27 -21 -10 6 -11 13 -1 35 8 17 9 30 3 36
-6 6 -20 -16 -37 -61z"/>
<path d="M1226 352 c-9 -14 37 -142 52 -142 16 0 16 -1 -13 77 -28 75 -31 78
-39 65z"/>
<path d="M796 287 c-33 -72 -39 -97 -26 -97 6 0 13 7 16 15 9 23 23 18 35 -11
15 -40 22 -22 26 60 2 59 0 75 -12 80 -11 4 -22 -9 -39 -47z m30 -19 c-3 -18
-5 -34 -5 -36 -1 -2 -5 -1 -10 3 -6 3 -6 17 1 35 13 39 19 38 14 -2z"/>
<path d="M1170 331 c0 -5 4 -20 9 -33 4 -13 11 -40 15 -60 5 -29 4 -38 -7 -38
-9 0 -19 21 -27 60 -11 54 -24 79 -35 69 -2 -2 4 -35 12 -72 16 -73 30 -86 68
-69 l23 11 -17 67 c-9 37 -22 69 -29 72 -7 2 -12 -1 -12 -7z"/>
<path d="M889 293 c0 -16 -3 -49 -5 -75 -3 -26 0 -49 6 -53 6 -4 10 8 10 29 0
46 16 47 24 1 7 -35 23 -47 31 -22 2 6 6 40 8 75 3 43 1 62 -7 62 -7 0 -13
-18 -15 -42 -3 -59 -8 -58 -16 1 -8 56 -34 73 -36 24z"/>
<path d="M1035 310 c-6 -10 3 -128 11 -142 3 -4 17 -6 32 -5 22 2 28 8 30 32
l3 30 -20 -25 c-23 -29 -27 -23 -35 53 -4 37 -2 47 10 47 7 0 14 -7 14 -15 0
-8 4 -15 8 -15 17 0 21 13 11 31 -10 20 -54 26 -64 9z"/>
</g>
</svg>
